<svg xmlns="http://www.w3.org/2000/svg"><defs><font id="alk_sanetregular" horiz-adv-x="1139"><font-face units-per-em="2048" ascent="1638" descent="-410"/><glyph horiz-adv-x="846"/><glyph horiz-adv-x="846"/><glyph horiz-adv-x="846"/><glyph unicode="!" horiz-adv-x="416" d="M70 1507q0 13 9 22t22 9h187q13 0 21-9 9-9 9-22L299 414q0-13-9-22t-22-9H120q-13 0-21.5 9T89 414zM85 44v96q0 26 18 44t44 18h94q26 0 44-18t18-44V44q0-26-18-44t-44-18h-94q-26 0-44 18T85 44z"/><glyph unicode="&quot;" horiz-adv-x="819" d="M106 1335v96q0 26 18 44t43 18h95q25 0 43-18t18-44v-193q0-32-12-60t-33-49-49-33-59-12q-8 0-14 6t-6 14v82q0 8 6 14.5t14 6.5q13 0 22 8.5t9 22.5v35h-34q-25 0-43 18t-18 44zm335 0v96q0 26 18 44t43 18h95q25 0 43-18t18-44v-193q0-32-12-60t-33-49-49-33-59-12q-8 0-14 6t-6 14v82q0 8 6 14.5t14 6.5q13 0 22 8.5t9 22.5v35h-34q-25 0-43 18t-18 44z"/><glyph unicode="#" horiz-adv-x="1966" d="M160 0v1474h178v-1L802 401v1073h178V0H802L338 1072V0H160zm999 371v165h647V371h-647zm0 654v143q0 67 25.5 125.5T1254 1396t102.5 69.5T1482 1491t126-25.5 103-69.5 69.5-102.5T1806 1168v-143q0-67-25.5-125.5T1711 797t-103-69.5-126-25.5-125.5 25.5T1254 797t-69.5 102.5T1159 1025zm178-14q0-30 11.5-56.5t31-46 46-31T1482 866t57 11.5 46.5 31 31 46 11.5 56.5v171q0 30-11.5 56.5t-31 46-46.5 31-57 11.5-56.5-11.5-46-31-31-46-11.5-56.5v-171z"/><glyph unicode="$" d="M160 303v167h178V288q0-30 11.5-56.5t31-46 46-30.5 56.5-11h15v555q-66 1-124 27t-101 69.5-68 102-25 125.5v143q0 66 25 124.5t68 102 101 69 124 26.5v165h144v-165q66-1 124-26.5t100.5-69 67.5-102 25-124.5v-166H782v180q0 29-11 55t-30 46-44.5 31.5T642 1325V862h15q67 0 126-25.5t102.5-69 69-102T980 540V303q0-67-25.5-126t-69-102.5T783 5.5 657-20h-15v-164H498v164h-15q-67 0-125.5 25.5T255 74.5 185.5 177 160 303zm198 706q0-29 11-55t29.5-46 44-32 55.5-13v462q-30-1-55.5-12.5t-44-31.5-29.5-46-11-55v-171zm284-865h15q30 0 56.5 11t46 30.5 31 46T802 288v266q0 30-11.5 56.5t-31 46-46 31T657 699h-15V144z"/><glyph unicode="%" horiz-adv-x="1323" d="M70 1143v162q0 46 24 92.5t67 78 93 31.5h121q48 0 90.5-31.5t67-79.5 24.5-91v-162q0-83-41.5-144T375 938H254q-87 0-135.5 67T70 1143zM203 0l641 1501h188L401 0H203zm41 1122q0-19 11-30t30-11h59q41 0 41 41v203q0 15-11 28t-30 13h-59q-18 0-29.5-14t-11.5-27v-203zm497-807v162q0 43 24.5 91.5t67.5 80 93 31.5h121q48 0 90.5-31.5t67-80T1229 477V315q0-83-41.5-143.5T1047 111H926q-88 0-136.5 67T741 315zm174-20q0-21 11.5-31t29.5-10h60q41 0 41 41v203q0 13-11.5 27t-29.5 14h-60q-17 0-29-14t-12-27V295z"/><glyph unicode="&amp;" horiz-adv-x="1366" d="M88 403q0 138 88 246 86 111 260 193-98 114-131 184-33 72-33 137 0 133 105 232 102 96 260 96 149 0 246-92 94-92 94-221 0-209-277-357l263-336q45 88 69 205l189-41q-50-190-131-315 102-133 229-225L1198-35q-108 72-225 207-88-98-195-147-104-50-225-50-225 0-358 152Q88 252 88 403zm195 13q0-90 69-187 72-94 203-94 80 0 168 49 86 52 137 131L530 725q-145-88-196-162-51-76-51-147zm174 766q0-35 18-72 17-39 51-80l80-92q119 68 154 121 33 51 33 115 0 73-48 122-47 47-118 47-72 0-121-47t-49-114z"/><glyph unicode="'" horiz-adv-x="496" d="M106 1335v96q0 26 18 44t43 18h95q25 0 43-18t18-44v-193q0-32-12-60t-33-49-49-33-59-12q-8 0-14 6t-6 14v82q0 8 6 14.5t14 6.5q13 0 22 8.5t9 22.5v35h-34q-25 0-43 18t-18 44z"/><glyph unicode="(" horiz-adv-x="705" d="M111 762q0 311 147 551 96 153 264 284l90-90q-61-61-125-123-98-104-151-233-76-180-76-420 0-235 107-448Q465 82 612-14l-73-121Q285 55 180 334q-69 190-69 428z"/><glyph unicode=")" horiz-adv-x="705" d="m80 1493 76 121q180-115 301-332 141-254 141-551 0-258-106-483Q377-2 170-121L94-14q172 131 256 315 78 170 78 371v59q0 273-113 488-92 182-235 274z"/><glyph unicode="*" horiz-adv-x="950" d="m109 1006 245 133-245 114 71 131 232-174-29 289h147l-28-289 229 174 74-131-246-114 246-133-74-115-215 143 14-260H383l14 260-217-143z"/><glyph unicode="+" horiz-adv-x="1116" d="M76 569v146h368v368h146V715h358V569H590V201H444v368H76z"/><glyph unicode="," horiz-adv-x="496" d="M129 44v96q0 26 18 44t43 18h95q25 0 43-18t18-44V-53q0-32-12-60t-33-48.5-49-32.5-59-12q-8 0-14 6t-6 14v81q0 8 6 14.5t14 6.5q13 0 22 8.5t9 22.5v35h-34q-25 0-43 18t-18 44z"/><glyph unicode="-" horiz-adv-x="1057" d="M86 717v153h883V717H86z"/><glyph unicode="." horiz-adv-x="496" d="M129 43v96q0 26 17.5 44t43.5 18h94q26 0 44-18t18-44V43q0-26-18-43.5T284-18h-94q-26 0-43.5 17.5T129 43z"/><glyph unicode="/" horiz-adv-x="496" d="m-111-10 611 1556h157L35-10h-146z"/><glyph unicode="0" d="M158 306v862q0 67 25.5 126t69.5 102.5 103 69 126 25.5h173q67 0 126-25.5t103-69 69.5-102.5 25.5-126V306q0-67-25.5-126T884 77 781 7.5 655-18H482q-67 0-126 25.5T253 77t-69.5 103T158 306zm178-15q0-30 11.5-56.5t31-46 46.5-31 57-11.5h173q30 0 57 11.5t46.5 31 31 46T801 291v891q0 30-11.5 57t-31 46.5-46.5 31-57 11.5H482q-30 0-57-11.5t-46.5-31-31-46.5-11.5-57V291z"/><glyph unicode="1" horiz-adv-x="712" d="M114 1127v130h20q45 0 92 7t87.5 27 71.5 56.5 44 96.5v25h123V0H374v1127H114z"/><glyph unicode="2" d="M168 1v459q0 67 25.5 126T263 689t103 69.5T492 784h153q30 0 56.5 11.5t46 31 31 46T790 929v253q0 30-11.5 57t-31 46.5-46 31T645 1328H512q-30 0-56.5-11.5t-46-31-31-46.5-11.5-57v-180H189v166q0 67 25.5 126t69.5 103 102.5 69.5T512 1492h133q67 0 126-25.5t102.5-69.5 69-103 25.5-126V944q0-67-25.5-126t-69-103T771 645.5 645 620H492q-30 0-57-11.5t-46.5-31-31-46T346 475V164h622V1H168z"/><glyph unicode="3" d="M158 306v168h178V291q0-30 11.5-56t31-46 46.5-31.5 57-11.5h173q30 0 56.5 11.5T758 189t31.5 46 11.5 56v283q0 30-11.5 56.5t-31.5 46-46.5 31T655 719l-142 4v163l122-3q30 0 56.5 11.5t46 31.5 31 46.5T780 1029v153q0 30-11.5 57t-31 46.5-46 31T635 1328H502q-30 0-56.5-11.5t-46-31-31-46.5-11.5-57v-182H179v168q0 67 25.5 126t69.5 103 102.5 69.5T502 1492h133q67 0 126-25.5t102.5-69.5 69-103 25.5-126v-125q0-69-26.5-129.5T857 809q18-8 39.5-31t40-56.5 30.5-75 12-86.5V306q0-67-25.5-126T884 77 781 7.5 655-18H482q-67 0-126 25.5T253 77t-69.5 103T158 306z"/><glyph unicode="4" d="M159 1024v447h179v-462q0-30 11.5-56.5t31-46 46-31T483 864h319v607h178V-1H802v702q-55-1-111.5-1H483q-67 0-126 25.5T254 795t-69.5 103-25.5 126z"/><glyph unicode="5" d="M159 305v167h178V290q0-30 11.5-56t31.5-46 46.5-31.5T483 145h173q30 0 57 11.5t46.5 31.5 31 46 11.5 56v365q0 30-11.5 56.5t-31 46-46.5 31-57 11.5H503q-30 0-56.5-11.5t-46-31-31-46T358 655v-14H180v831h800v-164H358V930q68 34 145 34h153q67 0 126-25.5t103-69T954.5 767 980 641V305q0-67-25.5-126T885 76 782 6.5 656-19H483q-67 0-126 25.5T254 76t-69.5 103T159 305z"/><glyph unicode="6" d="M158 306v862q0 67 25.5 126t69.5 103 103 69.5 126 25.5h153q67 0 126-25.5t103-69.5 69.5-103 25.5-126v-86H780v100q0 30-11.5 57t-31 46.5-46 31T635 1328H482q-30 0-56.5-11.5t-46.5-31-31.5-46.5-11.5-57V820q10 14 27 25.5t37 20 41 13 41 4.5h173q67 0 126-25.5t103-69T953.5 686 979 560V306q0-67-25.5-126T884 77 781 7.5 655-18H482q-67 0-126 25.5T253 77t-69.5 103T158 306zm178-15q0-30 11.5-56t31.5-46 46.5-31.5T482 146h173q30 0 57 11.5t46.5 31.5 31 46 11.5 56v283q0 30-11.5 56.5t-31 46-46.5 31-57 11.5H482q-30 0-56.5-11.5t-46.5-31-31.5-46T336 574V291z"/><glyph unicode="7" d="M157 1311v164h821v-191L417 3H222l574 1308H157z"/><glyph unicode="8" d="M158 306v254q0 45 12 86.5t30.5 75 40 56.5 39.5 31q-47 44-74 104.5T179 1043v125q0 67 25.5 126t69.5 103 102.5 69.5T502 1492h133q67 0 126-25.5t102.5-69.5 69-103 25.5-126v-125q0-69-26.5-129.5T858 809q18-8 39-31t39.5-56.5 30.5-75 12-86.5V306q0-67-25.5-126T884 77 781 7.5 655-18H482q-67 0-126 25.5T253 77t-69.5 103T158 306zm178-15q0-30 11.5-56t31-46 46.5-31.5 57-11.5h173q30 0 57 11.5t46.5 31.5 31 46 11.5 56v283q0 30-11.5 56.5t-31 46-46.5 31-57 11.5H482q-30 0-57-11.5t-46.5-31-31-46T336 574V291zm21 738q0-30 11.5-56.5t31-46.5 46-31.5T502 883h133q30 0 56.5 11.5t46 31.5 31 46.5T780 1029v153q0 30-11.5 57t-31 46.5-46 31T635 1328H502q-30 0-56.5-11.5t-46-31-31-46.5-11.5-57v-153z"/><glyph unicode="9" d="M158 306v86h178V291q0-30 11.5-56t31.5-46 46.5-31.5T482 146h173q30 0 57 11.5t46.5 31.5 31 46 11.5 56v363q-11-14-27.5-25.5t-36-20-41-13.5-41.5-5H482q-67 0-126 25.5T253 685t-69.5 103T158 914v254q0 67 25.5 126t69.5 103 103 69.5 126 25.5h173q67 0 126-25.5t103-69.5 69.5-103 25.5-126V306q0-67-25.5-126T884 77 781 7.5 655-18H482q-67 0-126 25.5T253 77t-69.5 103T158 306zm178 594q0-30 11.5-56.5T379 797t46.5-31.5T482 754h173q30 0 57 11.5t46.5 31.5 31 46.5T801 900v282q0 30-11.5 57t-31 46.5-46.5 31-57 11.5H482q-30 0-56.5-11.5t-46.5-31-31.5-46.5-11.5-57V900z"/><glyph unicode=":" horiz-adv-x="496" d="M129 43v96q0 26 18 44t43 18h95q25 0 43-18t18-44V43q0-26-18-43.5T285-18h-95q-25 0-43 17.5T129 43zm0 959v96q0 26 18 43.5t43 17.5h95q25 0 43-17.5t18-43.5v-96q0-26-18-44t-43-18h-95q-25 0-43 18t-18 44z"/><glyph unicode=";" horiz-adv-x="496" d="M128 43q0-26 18-43.5T190-18h34v-46q0-14-9-23t-23-9q-8 0-14-6t-6-15v-80q0-8 6-14t14-6q32 0 60 12t49 32.5 33 48.5 12 60v203q0 26-18 44t-44 18h-94q-26 0-44-18t-18-44V43zm1 959v96q0 26 18 43.5t43 17.5h95q25 0 43-17.5t18-43.5v-96q0-26-18-44t-43-18h-95q-25 0-43 18t-18 44z"/><glyph unicode="&lt;" horiz-adv-x="1116" d="M90 672v147l887 389v-157L279 743l698-303V297z"/><glyph unicode="=" horiz-adv-x="1057" d="M86 504v153h883V504H86zm0 319v154h883V823H86z"/><glyph unicode="&gt;" horiz-adv-x="1116" d="M104 297v158l697 303-697 307v158l887-389V686z"/><glyph unicode="?" horiz-adv-x="881" d="M27 1108v107q0 69 26 131t75 111q48 48 110.5 73.5T370 1556h132q69 0 131-25.5t111-73.5q49-49 74.5-111t25.5-131v-143q0-69-25.5-131.5T744 830q-49-49-111-74.5T502 730q-26 0-49.5-10T412 692.5 385 652t-10-49V401q0-8-5-13.5t-13-5.5H179q-8 0-13.5 5.5T160 401v188q0 70 27 132 25 61 73 109 49 49 111 74.5T502 930q26 0 49 10t40.5 27.5 27.5 41 10 49.5v171q0 26-10 49t-27.5 40.5T551 1346t-49 10H370q-26 0-49.5-10t-41-27.5T252 1278t-10-49v-121q0-8-5-13.5t-13-5.5H46q-8 0-13.5 5.5T27 1108zM156 44v96q0 26 18.5 44t43.5 18h95q26 0 44-18t18-44V44q0-26-18-44t-44-18h-95q-25 0-43.5 18T156 44z"/><glyph unicode="@" horiz-adv-x="1491" d="m74 637 4 31-4 26q0 260 184 463 199 219 500 219 332 0 512-205 135-157 135-354 0-133-31-221-35-88-117-186-65-66-133-101-67-39-145-39l-41 4q-39 0-61 21-29 27-29 84-37-47-90-74-53-31-121-31-119 0-201 70-92 80-92 219l6 29q0 178 105 319 120 164 319 164 72 0 133-45 54-37 80-92l29 109h135l-150-560q0-86 50-86 63 0 137 109 86 123 98 278v21q0 160-125 293-149 155-387 155-188 0-354-135-207-166-207-440l-2-27q0-247 197-409 170-142 368-142l27 5q131 0 254 61 121 61 155 135h150q-102-149-203-215Q1008-10 774-10q-332 0-530 225Q74 406 74 637zm444-45q0-88 47-137 39-45 103-45 88 0 172 110 82 109 82 223v25q0 68-41 113-45 41-107 41-102 0-180-101-76-100-76-229z"/><glyph unicode="A" horiz-adv-x="1032" d="M70 0v4l327 1468h168L891 4V0H724L608 554H353L237 0H70zm317 719h187l-93 447z"/><glyph unicode="B" d="M158 1v1472h476q67 0 126-25.5t103-69.5 69.5-103 25.5-126v-106q0-69-27-129.5T857 808q18-7 39.5-30t39.5-56.5 30-75 12-86.5V324q0-67-25.5-126t-69-102.5-102.5-69T655 1H158zm178 163h319q30 0 56.5 11.5t46 31 31 46.5 11.5 57v264q0 30-11.5 56.5t-31 46-46 31T655 719l-319 2V164zm0 721 298-2q30 0 56.5 11.5t46.5 31 31.5 46.5 11.5 57v135q0 30-11.5 56.5t-31.5 46-46.5 31T634 1309H336V885z"/><glyph unicode="C" d="M158 305v862q0 67 25.5 126t69.5 102.5 103 69 126 25.5h174q67 0 126-25.5t102.5-69 69-102.5 25.5-126v-166H801v180q0 30-11.5 57t-31 46.5-46 31T656 1327H482q-30 0-56.5-11.5t-46.5-31-31.5-46.5-11.5-57V290q0-30 11.5-56.5t31.5-46 46.5-31T482 145h174q30 0 56.5 11.5t46 31 31 46T801 290v183h178V305q0-67-25.5-126t-69-103T782 6.5 656-19H482q-67 0-126 25.5T253 76t-69.5 103T158 305z"/><glyph unicode="D" d="M158 1v1474l497-2q67 0 126-25.5t103-69.5 69.5-103 25.5-126V324q0-67-25.5-126T884 95.5t-103-69T655 1H158zm178 163h319q30 0 56.5 11.5t46.5 31 31.5 46.5 11.5 57v854q0 30-11.5 56.5t-31.5 46-46.5 31T655 1309H336V164z"/><glyph unicode="E" d="M157 0v1474h822v-166H336V882h462V717H336V165h643V0H157z"/><glyph unicode="F" d="M157 0v1474h822v-166H336V882h462V717H336L335 0H157z"/><glyph unicode="G" d="M158 306v862q0 67 25.5 126t69.5 102.5 103 69 126 25.5h173q67 0 126-25.5t103-69 69.5-102.5 25.5-126v-166H801v180q0 30-11.5 57t-31 46.5-46.5 31-57 11.5H482q-30 0-57-11.5t-46.5-31-31-46.5-11.5-57V291q0-30 11.5-56.5t31-46 46.5-31 57-11.5h173q30 0 57 11.5t46.5 31 31 46T801 291v247H533v163h446V306q0-67-25.5-126T884 77 781 7.5 655-18H482q-67 0-126 25.5T253 77t-69.5 103T158 306z"/><glyph unicode="H" d="M157 1v1474h178V883h464v592h178V1H799v717H335V1H157z"/><glyph unicode="I" horiz-adv-x="494" d="M158 0v1474h178V0H158z"/><glyph unicode="J" horiz-adv-x="1098" d="M158 306v168h178V291q0-30 11.5-56.5t31-46 46.5-31 57-11.5h132q30 0 56.5 11.5t46.5 31 31.5 46T760 291v1182h178V306q0-67-25.5-126T843 77 740 7.5 614-18H482q-67 0-126 25.5T253 77t-69.5 103T158 306z"/><glyph unicode="K" d="M158 0v1472h178V838l444 634h199L568 862 979 0H775L451 688 336 517V0H158z"/><glyph unicode="L" horiz-adv-x="1079" d="M158 0v1474h179V165h642V0H158z"/><glyph unicode="M" horiz-adv-x="1394" d="M158 0v1472h294L696 306l243 1166h295V0h-178v1241L780 0H612L336 1241V0H158z"/><glyph unicode="N" d="M158 0v1474h178v-1L801 400v1074h178V0H801L336 1072V0H158z"/><glyph unicode="O" d="M158 306v862q0 67 25.5 126t69.5 102.5 103 69 126 25.5h173q67 0 126-25.5t103-69 69.5-102.5 25.5-126V306q0-67-25.5-126T884 77 781 7.5 655-18H482q-67 0-126 25.5T253 77t-69.5 103T158 306zm178-15q0-30 11.5-56.5t31-46 46.5-31 57-11.5h173q30 0 57 11.5t46.5 31 31 46T801 291v891q0 30-11.5 57t-31 46.5-46.5 31-57 11.5H482q-30 0-57-11.5t-46.5-31-31-46.5-11.5-57V291z"/><glyph unicode="P" horiz-adv-x="1106" d="M158 0v1472h498q67 0 126-25.5t102.5-69.5 69-103 25.5-126v-124q0-67-25.5-126t-69-103T782 725.5 656 700H336V0H158zm178 864h320q30 0 56.5 11.5t46 31.5 31 46.5T801 1010v153q0 30-11.5 56.5t-31 46-46 31T656 1308H336V864z"/><glyph unicode="Q" d="M159 307v862q0 67 25.5 126t69.5 102.5 102.5 69T482 1492h174q67 0 126-25.5t103-69 69.5-102.5 25.5-126V307q0-50-14-95.5T926 128l115-115L938-90 820 28q-74-45-164-45H482q-67 0-125.5 25.5T254 78t-69.5 103T159 307zm178-15q0-30 11.5-56.5t31-46 46-31T482 147h174q30 0 56.5 11.5t46 31 31 46T801 292v891q0 30-11.5 57t-31 46.5-46 31T656 1329H482q-30 0-56.5-11.5t-46-31-31-46.5-11.5-57V292z"/><glyph unicode="R" d="M158 0v1472h497q67 0 126.5-25.5t103-69.5 69-103 25.5-126V983q0-57-18.5-108t-51-92-77-70.5T736 670L979 0H805L565 660H336V0H158zm178 823h319q28 0 54.5 11.5t46.5 31 32.5 46T801 969v194q0 30-11.5 56.5t-31 46-46.5 31-57 11.5H336V823z"/><glyph unicode="S" d="M160 305v166h178V290q0-30 11.5-56.5t31-46 46-31T483 145h174q30 0 56.5 11.5t46 31 31 46T802 290v265q0 30-11.5 56.5t-31 46-46 31T657 700H504q-67 0-126 25.5T275 795t-69.5 103-25.5 126v143q0 67 25.5 126t69.5 102.5 103 69 126 25.5h132q67 0 126-25.5t103-69 69.5-102.5 25.5-126v-166H782v180q0 30-11.5 57t-31.5 46.5-46.5 31T636 1327H504q-30 0-57-11.5t-46.5-31-31-46.5-11.5-57v-171q0-30 11.5-56.5t31-46.5 46.5-31.5 57-11.5h153q67 0 126-25.5T885.5 769t69-102.5T980 541V305q0-67-25.5-126t-69-103T783 6.5 657-19H483q-67 0-125.5 25.5T255 76t-69.5 103T160 305z"/><glyph unicode="T" horiz-adv-x="1105" d="M160 1309v164h800v-164H649V1H471v1308H160z"/><glyph unicode="U" d="M157 306v1167h178V291q0-30 11.5-56.5t31.5-46 46.5-31T481 146h173q30 0 57 11.5t46.5 31 31 46T800 291v1182h178V306q0-67-25.5-126T883 77 780 7.5 654-18H481q-67 0-126 25.5T252 77t-69.5 103T157 306z"/><glyph unicode="V" horiz-adv-x="1068" d="M127 1468v4h167L537 306l244 1166h167v-4L621 0H454z"/><glyph unicode="W" horiz-adv-x="1555" d="M119 1468v4h167L529 306l166 797h163l166-797 244 1166h167v-4L1108 0H941L777 737 613 0H445z"/><glyph unicode="X" d="m158 0 318 736-318 736h179l229-530 229 530h179L655 736 974 0H795L566 529 337 0H158z"/><glyph unicode="Y" d="M163 1473h179l229-530 230 530h178L660 737V1H482v736z"/><glyph unicode="Z" d="M182-1v163l614 1145H182v164h800v-164h-1L367 162h615V-1H182z"/><glyph unicode="[" horiz-adv-x="705" d="M205-88v1687h321v-90H365V2h161v-90H205z"/><glyph unicode="\" horiz-adv-x="496" d="M-158 1546H0L610-10H465z"/><glyph unicode="]" horiz-adv-x="705" d="M176 2h160v1493H176v104h322V-88H176V2z"/><glyph unicode="^" horiz-adv-x="1116" d="m104 723 365 754h158l364-754H829l-288 596-277-596H104z"/><glyph unicode="_" horiz-adv-x="1331" d="M37 717v153h1210V717H37z"/><glyph unicode="`" horiz-adv-x="819" d="M129 98q0 37 24 66t60 26h41q68 0 68-55 0-31-23-98l-68-221h-67V20q-35 32-35 78zm307 0q0 37 24 66t60 26h41q68 0 68-55 0-31-23-98l-67-221h-68V20q-35 33-35 78z"/><glyph unicode="a" horiz-adv-x="1032" d="M70 0v4l327 1468h168L891 4V0H724L608 554H353L237 0H70zm317 719h187l-93 447z"/><glyph unicode="b" d="M158 1v1472h476q67 0 126-25.5t103-69.5 69.5-103 25.5-126v-106q0-69-27-129.5T857 808q18-7 39.5-30t39.5-56.5 30-75 12-86.5V324q0-67-25.5-126t-69-102.5-102.5-69T655 1H158zm178 163h319q30 0 56.5 11.5t46 31 31 46.5 11.5 57v264q0 30-11.5 56.5t-31 46-46 31T655 719l-319 2V164zm0 721 298-2q30 0 56.5 11.5t46.5 31 31.5 46.5 11.5 57v135q0 30-11.5 56.5t-31.5 46-46.5 31T634 1309H336V885z"/><glyph unicode="c" d="M158 305v862q0 67 25.5 126t69.5 102.5 103 69 126 25.5h174q67 0 126-25.5t102.5-69 69-102.5 25.5-126v-166H801v180q0 30-11.5 57t-31 46.5-46 31T656 1327H482q-30 0-56.5-11.5t-46.5-31-31.5-46.5-11.5-57V290q0-30 11.5-56.5t31.5-46 46.5-31T482 145h174q30 0 56.5 11.5t46 31 31 46T801 290v183h178V305q0-67-25.5-126t-69-103T782 6.5 656-19H482q-67 0-126 25.5T253 76t-69.5 103T158 305z"/><glyph unicode="d" d="M158 1v1474l497-2q67 0 126-25.5t103-69.5 69.5-103 25.5-126V324q0-67-25.5-126T884 95.5t-103-69T655 1H158zm178 163h319q30 0 56.5 11.5t46.5 31 31.5 46.5 11.5 57v854q0 30-11.5 56.5t-31.5 46-46.5 31T655 1309H336V164z"/><glyph unicode="e" d="M157 0v1474h822v-166H336V882h462V717H336V165h643V0H157z"/><glyph unicode="f" d="M157 0v1474h822v-166H336V882h462V717H336L335 0H157z"/><glyph unicode="g" d="M158 306v862q0 67 25.5 126t69.5 102.5 103 69 126 25.5h173q67 0 126-25.5t103-69 69.5-102.5 25.5-126v-166H801v180q0 30-11.5 57t-31 46.5-46.5 31-57 11.5H482q-30 0-57-11.5t-46.5-31-31-46.5-11.5-57V291q0-30 11.5-56.5t31-46 46.5-31 57-11.5h173q30 0 57 11.5t46.5 31 31 46T801 291v247H533v163h446V306q0-67-25.5-126T884 77 781 7.5 655-18H482q-67 0-126 25.5T253 77t-69.5 103T158 306z"/><glyph unicode="h" d="M157 1v1474h178V883h464v592h178V1H799v717H335V1H157z"/><glyph unicode="i" horiz-adv-x="494" d="M158 0v1474h178V0H158z"/><glyph unicode="j" horiz-adv-x="1098" d="M158 306v168h178V291q0-30 11.5-56.5t31-46 46.5-31 57-11.5h132q30 0 56.5 11.5t46.5 31 31.5 46T760 291v1182h178V306q0-67-25.5-126T843 77 740 7.5 614-18H482q-67 0-126 25.5T253 77t-69.5 103T158 306z"/><glyph unicode="k" d="M158 0v1472h178V838l444 634h199L568 862 979 0H775L451 688 336 517V0H158z"/><glyph unicode="l" horiz-adv-x="1079" d="M158 0v1474h179V165h642V0H158z"/><glyph unicode="m" horiz-adv-x="1394" d="M158 0v1472h294L696 306l243 1166h295V0h-178v1241L780 0H612L336 1241V0H158z"/><glyph unicode="n" d="M158 0v1474h178v-1L801 400v1074h178V0H801L336 1072V0H158z"/><glyph unicode="o" d="M158 306v862q0 67 25.5 126t69.5 102.5 103 69 126 25.5h173q67 0 126-25.5t103-69 69.5-102.5 25.5-126V306q0-67-25.5-126T884 77 781 7.5 655-18H482q-67 0-126 25.5T253 77t-69.5 103T158 306zm178-15q0-30 11.5-56.5t31-46 46.5-31 57-11.5h173q30 0 57 11.5t46.5 31 31 46T801 291v891q0 30-11.5 57t-31 46.5-46.5 31-57 11.5H482q-30 0-57-11.5t-46.5-31-31-46.5-11.5-57V291z"/><glyph unicode="p" horiz-adv-x="1106" d="M158 0v1472h498q67 0 126-25.5t102.5-69.5 69-103 25.5-126v-124q0-67-25.5-126t-69-103T782 725.5 656 700H336V0H158zm178 864h320q30 0 56.5 11.5t46 31.5 31 46.5T801 1010v153q0 30-11.5 56.5t-31 46-46 31T656 1308H336V864z"/><glyph unicode="q" d="M159 307v862q0 67 25.5 126t69.5 102.5 102.5 69T482 1492h174q67 0 126-25.5t103-69 69.5-102.5 25.5-126V307q0-50-14-95.5T926 128l115-115L938-90 820 28q-74-45-164-45H482q-67 0-125.5 25.5T254 78t-69.5 103T159 307zm178-15q0-30 11.5-56.5t31-46 46-31T482 147h174q30 0 56.5 11.5t46 31 31 46T801 292v891q0 30-11.5 57t-31 46.5-46 31T656 1329H482q-30 0-56.5-11.5t-46-31-31-46.5-11.5-57V292z"/><glyph unicode="r" d="M158 0v1472h497q67 0 126.5-25.5t103-69.5 69-103 25.5-126V983q0-57-18.5-108t-51-92-77-70.5T736 670L979 0H805L565 660H336V0H158zm178 823h319q28 0 54.5 11.5t46.5 31 32.5 46T801 969v194q0 30-11.5 56.5t-31 46-46.5 31-57 11.5H336V823z"/><glyph unicode="s" d="M160 305v166h178V290q0-30 11.5-56.5t31-46 46-31T483 145h174q30 0 56.5 11.5t46 31 31 46T802 290v265q0 30-11.5 56.5t-31 46-46 31T657 700H504q-67 0-126 25.5T275 795t-69.5 103-25.5 126v143q0 67 25.5 126t69.5 102.5 103 69 126 25.5h132q67 0 126-25.5t103-69 69.5-102.5 25.5-126v-166H782v180q0 30-11.5 57t-31.5 46.5-46.5 31T636 1327H504q-30 0-57-11.5t-46.5-31-31-46.5-11.5-57v-171q0-30 11.5-56.5t31-46.5 46.5-31.5 57-11.5h153q67 0 126-25.5T885.5 769t69-102.5T980 541V305q0-67-25.5-126t-69-103T783 6.5 657-19H483q-67 0-125.5 25.5T255 76t-69.5 103T160 305z"/><glyph unicode="t" horiz-adv-x="1105" d="M160 1309v164h800v-164H649V1H471v1308H160z"/><glyph unicode="u" d="M157 306v1167h178V291q0-30 11.5-56.5t31.5-46 46.5-31T481 146h173q30 0 57 11.5t46.5 31 31 46T800 291v1182h178V306q0-67-25.5-126T883 77 780 7.5 654-18H481q-67 0-126 25.5T252 77t-69.5 103T157 306z"/><glyph unicode="v" horiz-adv-x="1068" d="M127 1468v4h167L537 306l244 1166h167v-4L621 0H454z"/><glyph unicode="w" horiz-adv-x="1555" d="M119 1468v4h167L529 306l166 797h163l166-797 244 1166h167v-4L1108 0H941L777 737 613 0H445z"/><glyph unicode="x" d="m158 0 318 736-318 736h179l229-530 229 530h179L655 736 974 0H795L566 529 337 0H158z"/><glyph unicode="y" d="M163 1473h179l229-530 230 530h178L660 737V1H482v736z"/><glyph unicode="z" d="M182-1v163l614 1145H182v164h800v-164h-1L367 162h615V-1H182z"/><glyph unicode="{" horiz-adv-x="705" d="M33 668v123q69 0 106 63 37 59 37 135v350q0 99 51 172 52 72 138 72h147v-90h-90q-41 0-55-39-17-41-17-129V958q0-67-26-124-35-72-105-103 82-55 107-110 24-54 24-152V104q0-53 23-86 20-32 82-32h71v-107H418q-144 0-195 86-33 53-33 172v287q0 104-40 174-44 70-117 70z"/><glyph unicode="|" horiz-adv-x="416" d="M104 4v1528h160V4H104z"/><glyph unicode="}" horiz-adv-x="705" d="M162-4h71q54 0 72 27 17 22 17 94v379q0 206 161 262-77 10-118 69-43 62-43 158v395q0 88-21 115-22 23-82 23h-57v106h102q219 0 219-244v-336q0-110 56-184 45-57 88-57V692q-60-12-99-67-45-68-45-176V100q0-211-250-211h-71V-4z"/><glyph unicode="~" horiz-adv-x="819" d="M129 1180q0 33 27 100l73 219 68-2-6-205q31-31 31-73 0-38-23.5-67t-62.5-28l-41 2q-66 3-66 54zm307-9q0 30 27 101l74 219 67-2-6-205q31-31 31-76 0-38-22.5-65t-63.5-27h-41q-66 0-66 55z"/><glyph unicode="­" horiz-adv-x="1057" d="M86 717v153h883V717H86z"/><glyph unicode="ა" d="M159 306v332h179V292q0-30 11.5-56.5t31-46.5 46-31.5T483 146h173q30 0 57 11.5t46.5 31.5 31 46.5T802 292v446q0 34-.5 58.5t-2 41.5-4.5 28-9 19q-17 23-66.5 59.5T586 1035l-3 2q-51 33-90.5 58.5t-69 46.5-51 40.5T335 1225q-18 26-28 53t-14.5 57-5 64-.5 74h178q0-35 .5-59t2.5-40.5 5-27 9-18.5q16-24 64.5-60t130.5-89l4-3q52-33 91.5-58t70-47 52-42 37.5-42q18-26 27.5-53t14-57 5.5-64 1-75V306q0-67-25.5-126T885 77 782 7.5 656-18H483q-67 0-126 25.5T254 77t-69.5 103T159 306z"/><glyph unicode="ბ" d="M159 305v254q0 67 25.5 126t69 102.5 102.5 69T482 882h18v239h-43q-58 0-108.5 22t-88 59.5-59.5 88-22 108.5v73h175v-86q0-21 8-39.5t22.5-32.5 33-22 39.5-8h196q11 0 18-7.5t7-17.5V882q63-5 118-31.5t95.5-70 64-100.5T979 559V305q0-67-25.5-126T884 76 781.5 6.5 656-19H482q-67 0-126 25.5T253.5 76t-69 103T159 305zm178-14q0-30 11.5-56.5t31-46.5 46-31.5T482 145h174q30 0 56 11.5t46 31.5 31.5 46.5T801 291v282q0 30-11.5 57T758 676.5t-46 31-56 11.5H482q-30 0-56.5-11.5t-46-31-31-46.5-11.5-57V291z"/><glyph unicode="გ" d="M158 306v254q0 67 25.5 126T253 788.5t103 69T482 883h98q40 4 67 33t27 70v240q0 21-8 40t-22 33-32.5 22-39.5 8h-47q-21 0-40-8t-32.5-22-21.5-33-8-40v-144H246v132q0 57 22 108t60 88.5 88.5 59.5 108.5 22h47q58 0 108.5-22t88-59.5T828 1322t22-108V998q0-42-11.5-80.5T806 847q39-20 70.5-50t54.5-67 35.5-80 12.5-90V306q0-67-25.5-126T884 77 781 7.5 655-18H482q-67 0-126 25.5T253 77t-69.5 103T158 306zm179-14q0-30 11.5-56.5t31-46.5 46-31.5T482 146h173q30 0 57 11.5t46.5 31.5 31 46.5T801 292v282q0 30-11.5 57t-31 46.5-46.5 31-57 11.5H482q-30 0-56.5-11.5t-46-31-31-46.5-11.5-57V292z"/><glyph unicode="დ" horiz-adv-x="1608" d="M158 566v601q0 67 25.5 126t69.5 103 103 69.5 126 25.5h86q69 0 129.5-27t104.5-74q45 47 105.5 74t129.5 27h87q67 0 126-25.5t103-69.5 69.5-103 25.5-126V780q0-67-25.5-126T1353 551t-103-69.5-126-25.5h-87q-67 0-126 25.5T808 551t-69.5 103T713 780l1 401q0 30-11.5 57t-31.5 46.5-46.5 31T568 1327h-86q-30 0-56.5-11.5t-46.5-31-31.5-46.5-11.5-57V547q0-49 19-92t52-75 76.5-50.5T576 311h397q58 0 108.5-22t88.5-59.5 60-88.5 22-108V0h-179v45q0 21-8 39.5t-22 33-33 22.5-40 8H576q-87 0-163 33t-132.5 89.5T191 403t-33 163zm733 200q0-30 11.5-57t31.5-46.5 46.5-31T1037 620h87q30 0 56.5 11.5t46 31 31 46.5 11.5 57v415q0 30-11.5 57t-31 46.5-46 31-56.5 11.5h-87q-30 0-56.5-11.5t-46-31-31-46.5-11.5-57z"/><glyph unicode="ე" d="M158 306v168h178V292q0-30 11.5-56.5t31-46.5 46.5-31.5 57-11.5h173q30 0 56.5 11.5T758 189t31.5 46.5T801 292v890q0 30-11.5 57t-31.5 46.5-46.5 31T655 1328H502q-30 0-56.5-11.5t-46-31-31-46.5-11.5-57v-180H179v166q0 67 25.5 126t69 103 102.5 69.5 126 25.5h153q67 0 126-25.5t103-69.5 69.5-103 25.5-126V306q0-67-25.5-126T884 77 781 7.5 655-18H482q-67 0-126 25.5T253 77t-69.5 103T158 306z"/><glyph unicode="ვ" d="M158 306v168h178V292q0-30 11.5-56.5T379 189t46-31.5 56-11.5h174q30 0 56.5 11.5t46 31.5 31 46.5T800 292v282q0 30-11.5 57t-31 46.5-46 31T655 720l-142 3v164l121-4q30 0 57 11.5t46.5 31.5 31 46.5T780 1029v153q0 30-11.5 57t-31 46.5-46.5 31-57 11.5H502q-30 0-56.5-11.5t-46-31-31-46.5-11.5-57v-182H178v168q0 67 25.5 126t69.5 103 103 69.5 126 25.5h132q67 0 126-25.5t103-69.5 69.5-103 25.5-126v-125q0-69-26.5-129.5T857 808q18-7 39.5-30t39.5-56.5 30-75 12-86.5V306q0-67-25.5-126t-69-103T781 7.5 655-18H481q-67 0-125.5 25.5T253 77t-69.5 103T158 306z"/><glyph unicode="ზ" horiz-adv-x="1411" d="M159 997v218q0 57 22 107.5t59.5 88 88 59.5 107.5 22h149q57 0 107.5-22t88-59.5 59.5-88 22-107.5V997q0-59-25-114h110q67 0 126-25.5t103-69 69.5-102.5 25.5-126V306q0-67-25.5-126T1176 77 1073 7.5 947-18H773q-67 0-125.5 25.5T545 77t-69.5 103T450 306v254q0 88 43 160h-57q-57 0-107.5 22t-88 59.5-59.5 88T159 997zm178-12q0-20 7.5-38t21-31.5T397 894t39-8h149q21 0 39 8t31.5 21.5 21 31.5 7.5 38v243q0 20-7.5 38t-21 31.5T624 1319t-39 8H436q-21 0-39-8t-31.5-21.5-21-31.5-7.5-38V985zm291-693q0-30 11.5-56.5t31-46.5 46-31.5T773 146h174q30 0 56.5 11.5T1050 189t31.5 46.5T1093 292v282q0 30-11.5 57t-31.5 46.5-46.5 31T947 720H773q-30 0-56.5-11.5t-46-31-31-46.5-11.5-57V292z"/><glyph unicode="თ" horiz-adv-x="1606" d="M157 306v862q0 67 25.5 126t69.5 103 103 69.5 126 25.5h87q69 0 129-27t105-74q45 47 105 74t130 27h86q67 0 126-25.5t102.5-69.5 69-103 25.5-126V1h-178v1181q0 30-11.5 57t-31 46.5-46 31-56.5 11.5h-86q-30 0-57-11.5t-46.5-31-31-46.5-11.5-57V306q0-67-25.5-126t-69-103T694 7.5 568-18h-87q-67 0-126 25.5T252 77t-69.5 103T157 306zm179-14q0-30 11.5-56.5t31-46.5 46-31.5T481 146h87q30 0 56.5 11.5t46 31.5 31 46.5T713 292v890q0 30-11.5 57t-31 46.5-46 31T568 1328h-87q-30 0-56.5-11.5t-46-31-31-46.5-11.5-57V292z"/><glyph unicode="ი" d="M159 0v1167q0 67 25.5 126t69 103 102.5 69.5 126 25.5h174q67 0 126-25.5t102.5-69.5 69-103 25.5-126V0H801v1181q0 30-11.5 57t-31 46.5-46 31T656 1327H482q-30 0-56.5-11.5t-46-31-31-46.5-11.5-57V0H159z"/><glyph unicode="კ" d="M159 306v168h178V292q0-30 11.5-56.5t31-46.5 46-31.5T482 146h174q30 0 56.5 11.5t46 31.5 31 46.5T801 292v282q0 30-11.5 57t-31 46.5-46 31T656 720l-142 3v164l121-4q30 0 56.5 11.5t46 31.5 31 46.5T780 1029v153q0 30-11.5 57t-31 46.5-46 31T635 1328h-66v164h66q67 0 126-25.5t103-69.5 69.5-103 25.5-126v-125q0-69-27-129.5T858 808q18-7 39.5-30t39.5-56.5 30-75 12-86.5V306q0-67-25.5-126T884 77 781.5 7.5 656-18H482q-67 0-126 25.5T253.5 77t-69 103T159 306z"/><glyph unicode="ლ" horiz-adv-x="2015" d="M158 566v601q0 67 25.5 126t69.5 103 102.5 69.5T481 1491h40q69 0 129.5-27t105.5-74q45 47 105 74t129 27h41q69 0 129-27t105-74q45 47 105.5 74t129.5 27h42q67 0 126-25.5t102.5-69.5 69-103 25.5-126V473h-178v708q0 30-11.5 57t-31 46.5-46 31-56.5 11.5h-42q-30 0-56.5-11.5t-46-31-31-46.5-11.5-57V701h-179v480q0 30-11.5 57t-31 46.5-46 31-56.5 11.5h-41q-30 0-56.5-11.5t-46-31-31-46.5-11.5-57V701H666v480q0 30-11.5 57t-31 46.5-46 31T521 1327h-40q-30 0-56-11.5t-46-31-31.5-46.5-11.5-57V547q0-49 12-92t36-75 60-50.5 85-18.5h862q57 0 108-22t88.5-59.5T1647 141t22-108V0h-178v45q0 21-8 39.5t-22 33-32.5 22.5-39.5 8H529q-87 0-155.5 33T257 270.5 183.5 403 158 566z"/><glyph unicode="მ" d="M159 306v254q0 67 25.5 126T254 788.5t103 69T483 883h173q20 0 41.5-4.5t41-12.5 36-19.5T801 821v361q0 30-11.5 57t-31 46.5-46 31T656 1328H503q-30 0-56.5-11.5t-46-31-31-46.5-11.5-57v-100H180v86q0 67 25.5 126t69 103 102.5 69.5 126 25.5h153q67 0 126-25.5t103-69.5 69.5-103 25.5-126V306q0-67-25.5-126T885 77 782 7.5 656-18H483q-67 0-126 25.5T254 77t-69.5 103T159 306zm178-14q0-30 11.5-56.5t31-46.5 46.5-31.5 57-11.5h173q30 0 56.5 11.5t46 31.5 31 46.5T801 292v282q0 30-11.5 57t-31 46.5-46 31T656 720H483q-30 0-57-11.5t-46.5-31-31-46.5-11.5-57V292z"/><glyph unicode="ნ" d="M159 306v862q0 67 25.5 126t69 103 102.5 69.5 127 25.5q49 0 77.5-5t51-11.5T658 1464t65-5 83 5 76 11q40 7 77 17v-164q-35-10-75-17-34-6-76-11t-85-5-75 5-59 11.5-52 11.5-54 5q-30 0-56.5-11.5t-46.5-31-31.5-46.5-11.5-57V825q28 31 67 44.5t79 13.5h173q67 0 126-25.5t103-69T954.5 686 980 560V306q0-67-25.5-126T885 77 782 7.5 656-18H483q-67 0-126 25.5T254 77t-69.5 103T159 306zm178-14q0-30 11.5-56.5t31-46.5 46.5-31.5 57-11.5h173q30 0 56.5 11.5T759 189t31.5 46.5T802 292v282q0 30-11.5 57T759 677.5t-46.5 31T656 720H483q-30 0-57-11.5t-46.5-31-31-46.5-11.5-57V292z"/><glyph unicode="ო" horiz-adv-x="1607" d="M158 1v1167q0 67 25.5 126t69.5 103 102.5 69.5T481 1492h87q69 0 129.5-27t105.5-74q44 47 104.5 74t129.5 27h87q67 0 126-25.5t102.5-69.5 69-103 25.5-126V1h-178v1181q0 30-11.5 57t-31 46.5-46 31-56.5 11.5h-87q-30 0-56.5-11.5t-46-31-31-46.5-11.5-57V509H713v673q0 30-11.5 57t-31 46.5-46 31T568 1328h-87q-30 0-56.5-11.5t-46-31-31-46.5-11.5-57V1H158z"/><glyph unicode="პ" d="M158 306v168h179V292q0-30 11.5-56.5t31-46.5 46-31.5T482 146h173q30 0 57 11.5t46.5 31.5 31 46.5T801 292v282q0 30-11.5 57t-31 46.5-46.5 31-57 11.5l-142 3v164l122-4q30 0 56.5 11.5t46 31.5 31 46.5T780 1029q0 48-10.5 76t-33.5 46.5-59 31.5-86 30q-52 18-87.5 31t-60 25.5T402 1297t-33 38q-23 32-32 66.5t-9 71.5h181q0-10 .5-23t5.5-20q8-12 22-21t39.5-19.5 66.5-24 103-34.5q64-22 105.5-47.5t65-60.5 32.5-83 9-115q-4-64-30-119.5T857 808q19-7 40.5-30t39.5-56.5 30-75 12-86.5V306q0-67-25.5-126T884 77 781 7.5 655-18H482q-67 0-126 25.5T253 77t-69.5 103T158 306z"/><glyph unicode="ჟ" d="M74 1050h176v-12q0-21 8-40t22-33 33-22 40-8 39.5 8 32.5 22 22 33 8 40v24q0 21-8 40t-22 33-32.5 22-39.5 8v163l447 145h178V306q0-67-25.5-126T883 77 780.5 7.5 655-18H481q-67 0-126 25.5T252 77t-69.5 103T157 306v168h178V292q0-30 11.5-56.5T378 189t46.5-31.5T481 146h174q30 0 56.5 11.5t46 31.5 31 46.5T800 292v1011l-229-80q28-36 44-80t16-93q0-58-22-108.5T549.5 853 461 793t-108-22q-58 0-108.5 22T156 853t-60 88.5T74 1050z"/><glyph unicode="რ" horiz-adv-x="1607" d="M158 0v907q0 87 33 163t89.5 132.5T413 1292t163 33h395q21 0 39.5 8t32.5 22 22 32.5 8 39.5v45h178v-32q0-58-22-108.5t-59.5-88-88-59.5-108.5-22H576q-49 0-92.5-18.5t-76.5-51-52-75.5-19-92v-72q68 34 146 34h87q69 0 129-26.5T803 787q44 47 104.5 73.5T1038 887h86q67 0 125.5-25.5t102.5-69 69.5-102.5 25.5-126V0h-178v578q0 30-11.5 56.5t-31 46-46 31T1124 723h-86q-30 0-57-11.5t-46.5-31-31-46T892 578V271H714v307q0 30-11.5 56.5t-31.5 46-46 31-56 11.5h-87q-30 0-57-11.5t-46.5-31-31-46T336 578V0H158z"/><glyph unicode="ს" d="M159 306v1167h178V292q0-30 11.5-56.5t31-46.5 46-31.5T482 146h174q30 0 56.5 12t46 32.5 31 46.5 11.5 55q0 47-13 89.5t-29 86-29 90.5-13 102q0 56 4.5 97.5T732 827q6 33 15 56h178q-9-35-15-72-5-32-9.5-71.5T896 660t13-75 28.5-75 28.5-88.5T979 306t-25.5-126-69-103T782 7.5 656-18H482q-67 0-125.5 25.5T254 77t-69.5 103T159 306z"/><glyph unicode="ტ" horiz-adv-x="1232" d="M158 306v698q0 67 25.5 126t69.5 103 103 69.5 126 25.5h44v145h178v-145h44q67 0 126-25.5t103-69.5 69.5-103 25.5-126V306q0-67-25.5-126T977 77 874 7.5 748-18H482q-67 0-126 25.5T253 77t-69.5 103T158 306zm179-14q0-30 11.5-56.5t31-46.5 46-31.5T482 146h266q30 0 57 11.5t46.5 31.5 31 46.5T894 292v727q0 30-11.5 56.5t-31 46-46.5 31-57 11.5h-44V702H526v462h-44q-30 0-56.5-11.5t-46-31-31-46T337 1019V292z"/><glyph unicode="უ" d="M19 1328v164h125q70 0 130-27t105-74q45 47 105 74t129 27h42q67 0 126-25.5t103-69.5 69.5-103 25.5-126V306q0-67-25.5-126T884 77 781 7.5 655-18H482q-67 0-126 25.5T253 77t-69.5 103T158 306v168h178V292q0-30 11.5-56.5t31-46.5 46.5-31.5 57-11.5h173q30 0 57 11.5t46.5 31.5 31 46.5T801 292v890q0 30-11.5 57t-31 46.5-46.5 31-57 11.5h-42q-30 0-56-11.5t-46-31-31.5-46.5-11.5-57V883H290v299q0 30-11.5 57t-31 46.5-46.5 31-57 11.5H19z"/><glyph unicode="ფ" horiz-adv-x="1586" d="M117 1023v143q0 67 25.5 126t69.5 103 103 69.5 126 25.5h86q69 0 129-27t105-74q45 47 105 74t130 27h86q67 0 126-25.5t103-69.5 69.5-103 25.5-126v-125q0-70-27-130t-74-105q18-7 39.5-30t39.5-56.5 30-75 12-86.5V304q0-67-25.5-126t-69-103T1229 5.5 1103-20H752q-67 0-125.5 25.5T524 75t-69.5 103T429 304v168h178V290q0-30 11.5-56.5T650 187t46-31.5 56-11.5h351q30 0 56.5 11.5t46 31.5 31 46.5T1248 290v282q0 30-11.5 57t-31 46.5-46 31T1103 718l-143 3v160h122q30 0 57 11.5t46.5 31.5 31 46.5 11.5 56.5v153q0 30-11.5 57t-31 46.5-46.5 31-57 11.5h-86q-30 0-56.5-11.5t-46.5-31-31.5-46.5-11.5-57l1-157q0-67-25.5-125.5T756 795t-103-69.5T527 700h-86q-67 0-126 25.5T212 795t-69.5 102.5T117 1023zm178-14q0-30 11.5-56.5t31-46 46.5-31 57-11.5h86q30 0 56.5 11.5t46.5 31 31.5 46T673 1009l-1 171q0 30-11.5 57t-31 46.5-46 31T527 1326h-86q-30 0-57-11.5t-46.5-31-31-46.5-11.5-57v-171z"/><glyph unicode="ქ" d="M158 306v168h178V292q0-30 11.5-56.5t31-46.5 46.5-31.5 57-11.5h173q30 0 56.5 11.5t46 31.5 31 46.5T800 292v652q0 30-11.5 57t-31 46.5-46 31T655 1090H551q-30 0-56.5-11.5t-46-31-31-46.5-11.5-57v-61H228v47q0 67 25.5 126t69 102.5 102.5 69 126 25.5h104q42 0 80.5-19t64.5-57v296h179V306q0-67-25.5-126T884 77 781 7.5 655-18H482q-67 0-126 25.5T253 77t-69.5 103T158 306z"/><glyph unicode="ღ" horiz-adv-x="1606" d="M157 566v601q0 67 25.5 126t69.5 103 103 69.5 126 25.5h87q69 0 129-27t105-74q45 47 105 74t130 27h86q67 0 126-25.5t102.5-69.5 69-103 25.5-126V473h-178v708q0 30-11.5 57t-31 46.5-46 31-56.5 11.5h-86q-30 0-57-11.5t-46.5-31-31-46.5-11.5-57V701H712l1 480q0 30-11.5 57t-31 46.5-46 31T568 1327h-87q-30 0-56.5-11.5t-46-31-31-46.5-11.5-57V547q0-49 19-92t51.5-75 76-50.5T575 311h398q57 0 107.5-22t88-59.5T1228 141t22-108V0h-178v45q0 21-8 39.5t-22 33-32.5 22.5-39.5 8H575q-87 0-163 33t-132.5 89.5T190 403t-33 163z"/><glyph unicode="ყ" d="M158 306v168h178V292q0-30 11.5-56.5T379 189t46.5-31.5T482 146h174q30 0 56.5 11.5t46 31.5 31 46.5T801 292v471q-32-26-76-43.5T641 702H482q-67 0-126 25.5T253 797t-69.5 102.5T158 1025v448h178v-462q0-30 11.5-56.5t31.5-46 46.5-31T482 866h174q30 0 56.5 11.5t46 31 31 46T801 1011v462h178V306q0-67-25.5-126T884 77 781.5 7.5 656-18H482q-67 0-126 25.5T253 77t-69.5 103T158 306z"/><glyph unicode="შ" d="M72 1328v164h114q70 0 130-27t105-74q44 47 104.5 74t129.5 27q67 0 126-25.5t103-69.5 69.5-103 25.5-126V306q0-67-25.5-126T884 77 781 7.5 655-18H481q-67 0-125.5 25.5T253 77t-69.5 103T158 306v254q0 67 25.5 126T253 788.5t102.5 69T481 883h174q39 0 79-13.5t67-44.5v357q0 30-11.5 57t-31.5 46.5-46.5 31T655 1328t-56.5-11.5-46.5-31-31.5-46.5-11.5-57v-100H331v100q0 30-11.5 57t-31 46.5-46 31T186 1328H72zM336 291q0-30 11.5-56t31.5-46 46-31.5 56-11.5h174q30 0 56.5 11.5T758 189t31.5 46 11.5 56v283q0 30-11.5 56.5t-31.5 46-46.5 31T655 719H481q-30 0-56-11.5t-46-31-31.5-46T336 574V291z"/><glyph unicode="ჩ" d="M158 0v1167q0 67 25.5 126t69.5 103 102.5 69.5T481 1491h133q67 0 126-25.5t103-69.5 69.5-103 25.5-126-25.5-126T843 938t-103-69.5T614 843H336V654q16 13 35.5 24t40.5 19 42 12.5 41 4.5h160q67 0 126-25.5t103-69T953.5 517 979 391V0H801v405q0 30-11.5 57T758 508.5t-46.5 31T655 551H481q-30 0-56.5-11.5t-46-31-31-46.5-11.5-57V0H158zm178 1007h278q30 0 56.5 11.5T717 1050t31.5 46.5T760 1153v28q0 30-11.5 57t-31.5 46.5-46.5 31T614 1327H481q-30 0-56.5-11.5t-46-31-31-46.5-11.5-57v-174z"/><glyph unicode="ც" horiz-adv-x="1232" d="M158 306v1167h178V292q0-30 11.5-56.5T379 189t46-31.5 56-11.5h267q30 0 56.5 11.5T851 189t31.5 46.5T894 292v282q0 30-11.5 57T851 677.5t-46.5 31T748 720l-142 3v164l122-4q30 0 56.5 11.5t46 31.5 31 46.5T873 1029q0 48-8 76.5t-28 47.5-53.5 33-83.5 31q-52 18-83.5 30t-51.5 24-33 26.5-29 37.5q-23 32-32.5 66.5T461 1473h181q0-10 1-23t6-20q8-12 18-20.5t31-18 57.5-22.5 99.5-34q64-22 103-48t59.5-62 27-84.5 6.5-115.5q-4-64-30.5-119.5T950 808q18-7 39.5-30t40-56.5 30.5-75 12-86.5V306q0-67-25.5-126T977 77 874 7.5 748-18H481q-67 0-125.5 25.5T253 77t-69.5 103T158 306z"/><glyph unicode="ძ" d="M158 305v254q0 67 25.5 126T253 787.5t102.5 69T481 882h174q39 0 78.5-13.5T800 824v648h178V305q0-67-25.5-126t-69-103T781 6.5 655-19H481q-67 0-125.5 25.5T253 76t-69.5 103T158 305zm178-14q0-30 11.5-56.5t31-46.5 46-31.5T481 145h174q30 0 56.5 11.5t46 31.5 31 46.5T800 291v282q0 30-11.5 57t-31 46.5-46 31T655 719H481q-30 0-56.5-11.5t-46-31-31-46.5-11.5-57V291z"/><glyph unicode="წ" d="M158 306v862q0 67 25.5 126t69.5 103 103 69.5 126 25.5q69 0 129-27t105-74q45 47 105 74t130 27h114v-164H951q-30 0-56.5-11.5t-46.5-31-31.5-46.5-11.5-57l1-100H628l-1 100q0 30-11.5 57t-31 46.5-46 31T482 1328t-56.5-11.5-46.5-31-31.5-46.5-11.5-57V825q27 31 66.5 44.5T482 883h173q67 0 126-25.5t103-69T953.5 686 979 560V306q0-67-25.5-126T884 77 781 7.5 655-18H482q-67 0-126 25.5T253 77t-69.5 103T158 306zm178-15q0-30 11.5-56t31.5-46 46.5-31.5T482 146h173q30 0 56.5 11.5t46 31.5 31 46 11.5 56v283q0 30-11.5 56.5t-31 46-46 31T655 719H482q-30 0-56.5-11.5t-46.5-31-31.5-46T336 574V291z"/><glyph unicode="ჭ" horiz-adv-x="1263" d="M157 306v168h179V291q0-30 11.5-56t31-46 46-31.5T481 146h173q30 0 56.5 11.5T757 189t31.5 46 11.5 56v591q-30-34-65.5-65.5t-77-56T567 721t-107-15q-59 0-105.5 28T276 807t-49.5 100.5T209 1017t17.5 109.5T276 1227t78.5 73 105.5 28q58 0 107-15t90.5-39.5 77-56.5 65.5-65v321h180v-292l170 106v-151l-192-119 192-119V747L978 853V306q0-67-25.5-126T883 77 780 7.5 654-18H481q-67 0-126 25.5T252 77t-69.5 103T157 306zm226 711q0-45 15-72.5t37.5-42T485 883t51-5q21 0 43 9t43.5 23 40.5 31 34 32.5 25 27.5 12 16q-3 6-22.5 28.5t-48 47-62.5 44-65 19.5q-24 0-51-5t-49.5-19.5-37.5-42-15-72.5z"/><glyph unicode="ხ" d="M158 306v1167h178V825q27 31 66.5 44.5T482 883h173q67 0 126-25.5t103-69T953.5 686 979 560V306q0-67-25.5-126T884 77 781 7.5 655-18H482q-67 0-126 25.5T253 77t-69.5 103T158 306zm178-14q0-30 11.5-56.5t31-46.5 46.5-31.5 57-11.5h173q30 0 56.5 11.5t46 31.5 31 46.5T800 292v282q0 30-11.5 57t-31 46.5-46 31T655 720H482q-30 0-57-11.5t-46.5-31-31-46.5-11.5-57V292z"/><glyph unicode="ჯ" d="M158 308v168h178V293q0-30 11.5-56t31.5-46 46.5-31.5T482 148h174q30 0 56.5 11.5t46 31.5 31 46 11.5 56v88q0 57-7 99.5t-24 77-47.5 63T646 678q-27 17-60.5 40.5t-66 49-60 51.5-43.5 49-25.5 47-14.5 50.5-6.5 55.5-1.5 63H158v164h210v227h178v-227h251v-164H546q0-51 3-75.5t13-37.5q16-23 45.5-49t59.5-49q34-27 74-54 71-49 117-95.5t73-97.5 37.5-110.5T979 381v-73q0-67-25.5-126T884 79 781.5 9.5 656-16H482q-67 0-126 25.5T253 79t-69.5 103T158 308z"/><glyph unicode="ჰ" d="M158 306v16h178v-31q0-30 11.5-56t31-46 46-31.5T481 146h174q29 0 54.5 10.5t45 29 31.5 43 14 52.5q-2 28-14 53t-31.5 43.5-45 29T655 417l-142 3v164l114-3q30 0 57 8.5t48 24 33.5 38T778 702t-12.5 48.5T734 784t-42 19-45 6l-134 3v163l121-2q25 0 48 8t42 22.5 32 34.5 19 44q-6 29-19.5 48t-36.5 32.5-55 24.5-74 26q-52 18-87 31t-59.5 25.5T402 1297t-33 38q-23 32-32.5 66.5T327 1473h181q0-11 .5-23.5t5.5-19.5q8-12 22-21.5t39.5-20 66.5-24 103-34.5q106-35 159.5-93t53.5-155q0-48-16-82.5T907 942q-22-26-50-44 31-11 57-36 21-21 39-59t18-101-18-101-39-59q-26-25-57-36 34-23 60-56 23-28 42-70t19-99-27.5-110.5-73-95.5T774 7.5 655-18H481q-67 0-126 25.5T252.5 77t-69 103T158 306z"/><glyph horiz-adv-x="826"/><glyph horiz-adv-x="1653"/><glyph horiz-adv-x="826"/><glyph horiz-adv-x="1653"/><glyph horiz-adv-x="551"/><glyph horiz-adv-x="413"/><glyph horiz-adv-x="275"/><glyph horiz-adv-x="275"/><glyph horiz-adv-x="206"/><glyph horiz-adv-x="330"/><glyph horiz-adv-x="91"/><glyph unicode="‐" horiz-adv-x="1057" d="M86 717v153h883V717H86z"/><glyph unicode="‑" horiz-adv-x="1057" d="M86 717v153h883V717H86z"/><glyph unicode="‒" horiz-adv-x="1057" d="M86 717v153h883V717H86z"/><glyph unicode="–" horiz-adv-x="1198" d="M86 717v153h1024V717H86z"/><glyph unicode="—" horiz-adv-x="2222" d="M86 717v153h2048V717H86z"/><glyph horiz-adv-x="330"/><glyph horiz-adv-x="413"/><glyph unicode="◼" horiz-adv-x="1470" d="M0 0v1470h1470V0H0z"/></font>
</defs>
</svg>
